<svg width="84" height="27" viewBox="0 0 84 27" fill="none" xmlns="http://www.w3.org/2000/svg">
<path d="M8.9 26.468C7.028 26.468 5.456 26.108 4.184 25.388C2.912 24.644 1.952 23.696 1.304 22.544C0.656 21.368 0.332 20.168 0.332 18.944C0.332 17.936 0.524 17.036 0.908 16.244C1.292 15.428 1.784 14.72 2.384 14.12C3.008 13.52 3.644 13.052 4.292 12.716C3.428 12.068 2.696 11.276 2.096 10.34C1.52 9.38 1.232 8.228 1.232 6.884C1.232 4.988 1.892 3.428 3.212 2.204C4.532 0.98 6.464 0.368 9.008 0.368C10.76 0.368 12.212 0.667999 13.364 1.268C14.54 1.844 15.416 2.624 15.992 3.608C16.568 4.592 16.856 5.696 16.856 6.92C16.856 8.408 16.508 9.644 15.812 10.628C15.14 11.588 14.312 12.38 13.328 13.004C13.952 13.316 14.6 13.748 15.272 14.3C15.968 14.828 16.544 15.5 17 16.316C17.48 17.108 17.72 18.08 17.72 19.232C17.72 20.48 17.372 21.656 16.676 22.76C16.004 23.864 15.008 24.764 13.688 25.46C12.368 26.132 10.772 26.468 8.9 26.468ZM9.008 22.904C10.52 22.904 11.624 22.604 12.32 22.004C13.016 21.38 13.364 20.54 13.364 19.484C13.364 18.668 13.196 17.984 12.86 17.432C12.524 16.88 11.96 16.376 11.168 15.92C10.4 15.464 9.344 15.02 8 14.588C6.968 14.996 6.152 15.512 5.552 16.136C4.976 16.76 4.688 17.744 4.688 19.088C4.688 19.808 4.82 20.456 5.084 21.032C5.348 21.584 5.804 22.04 6.452 22.4C7.1 22.736 7.952 22.904 9.008 22.904ZM9.584 11.348C10.544 10.988 11.3 10.484 11.852 9.836C12.404 9.164 12.68 8.252 12.68 7.1C12.68 6.092 12.404 5.288 11.852 4.688C11.324 4.064 10.388 3.752 9.044 3.752C7.628 3.752 6.656 4.028 6.128 4.58C5.624 5.132 5.372 5.852 5.372 6.74C5.372 7.796 5.696 8.684 6.344 9.404C6.992 10.124 8.072 10.772 9.584 11.348ZM29.7302 26.468C28.4582 26.468 27.2942 26.276 26.2382 25.892C25.1822 25.508 24.2462 24.848 23.4302 23.912C22.6382 22.952 22.0142 21.62 21.5582 19.916C21.1022 18.212 20.8742 16.028 20.8742 13.364C20.8742 10.748 21.1022 8.6 21.5582 6.92C22.0142 5.216 22.6382 3.896 23.4302 2.96C24.2462 2 25.1822 1.328 26.2382 0.943999C27.2942 0.559999 28.4462 0.368 29.6942 0.368C30.9662 0.368 32.1302 0.559999 33.1862 0.943999C34.2662 1.328 35.2022 2 35.9942 2.96C36.8102 3.896 37.4342 5.216 37.8662 6.92C38.3222 8.6 38.5502 10.76 38.5502 13.4C38.5502 16.04 38.3222 18.212 37.8662 19.916C37.4342 21.62 36.8102 22.952 35.9942 23.912C35.2022 24.848 34.2662 25.508 33.1862 25.892C32.1302 26.276 30.9782 26.468 29.7302 26.468ZM29.7302 22.832C30.7382 22.832 31.5782 22.58 32.2502 22.076C32.9222 21.572 33.4262 20.636 33.7622 19.268C34.0982 17.9 34.2662 15.944 34.2662 13.4C34.2662 11.432 34.1582 9.836 33.9422 8.612C33.7502 7.364 33.4502 6.416 33.0422 5.768C32.6582 5.096 32.1782 4.64 31.6022 4.4C31.0502 4.136 30.4142 4.004 29.6942 4.004C28.9982 4.004 28.3622 4.124 27.7862 4.364C27.2342 4.604 26.7542 5.06 26.3462 5.732C25.9622 6.38 25.6742 7.316 25.4822 8.54C25.2902 9.764 25.1942 11.36 25.1942 13.328C25.1942 15.872 25.3622 17.828 25.6982 19.196C26.0342 20.564 26.5382 21.512 27.2102 22.04C27.9062 22.568 28.7462 22.832 29.7302 22.832ZM57.7678 26L48.0838 12.968L57.0838 0.835998H62.1598L52.7638 12.716V12.932L62.9518 26H57.7678ZM43.7638 26L43.8718 13.22L43.7638 0.835998H47.9758V26H43.7638ZM71.9233 25.316V17.216H64.0393V13.688H71.9233V5.696H75.5593V13.688H83.5153V17.216H75.5593V25.316H71.9233Z" fill="white"/>
</svg>
